<svg width="16" height="16" viewBox="0 0 16 16" fill="none" xmlns="http://www.w3.org/2000/svg">
<g id="Group 424">
<circle id="Ellipse 85" cx="7.99999" cy="12.8" r="3.2" fill="#98FFE0"/>
<path id="Path 24" d="M14.8686 12.8H1.12326C0.502902 12.8 0 12.2971 0 11.6767C0 11.3721 0.123765 11.0805 0.342909 10.8688L1.04345 10.1922C1.43514 9.81386 1.65563 9.29217 1.654 8.74761L1.64694 6.39568C1.63635 2.86656 4.49431 0 8.02345 0C11.5451 0 14.4 2.85487 14.4 6.37653L14.4 8.77157C14.4 9.30201 14.6107 9.81071 14.9858 10.1858L15.6686 10.8686C15.8808 11.0808 16 11.3686 16 11.6686C16 12.2935 15.4935 12.8 14.8686 12.8Z" fill="#0BB885"/>
</g>
</svg>
