<svg width="151" height="74" viewBox="0 0 151 74" fill="none" xmlns="http://www.w3.org/2000/svg">
<g id="Chart">
<path id="Bar" d="M0.689087 4.40341C0.689087 2.89196 1.91436 1.66669 3.42581 1.66669H5.06785C6.57931 1.66669 7.80458 2.89196 7.80458 4.40342V69.2639C7.80458 71.2288 6.21172 72.8216 4.24683 72.8216C2.28194 72.8216 0.689087 71.2288 0.689087 69.2639V4.40341Z" fill="#2E4B85"/>
<path id="Bar_2" d="M35.0806 4.40341C35.0806 2.89196 36.3059 1.66669 37.8174 1.66669H39.4594C40.9708 1.66669 42.1961 2.89196 42.1961 4.40342V69.2639C42.1961 71.2288 40.6033 72.8216 38.6384 72.8216C36.6735 72.8216 35.0806 71.2288 35.0806 69.2639V4.40341Z" fill="#2E4B85"/>
<path id="Bar_3" d="M73.0299 4.40341C73.0299 2.89196 74.2552 1.66669 75.7666 1.66669H77.4087C78.9201 1.66669 80.1454 2.89196 80.1454 4.40342V69.2639C80.1454 71.2288 78.5525 72.8216 76.5877 72.8216C74.6228 72.8216 73.0299 71.2288 73.0299 69.2639V4.40341Z" fill="#2E4B85"/>
<path id="Bar_4" d="M108.607 4.40341C108.607 2.89196 109.833 1.66669 111.344 1.66669H112.986C114.498 1.66669 115.723 2.89196 115.723 4.40342V69.2639C115.723 71.2288 114.13 72.8216 112.165 72.8216C110.2 72.8216 108.607 71.2288 108.607 69.2639V4.40341Z" fill="#2E4B85"/>
<path id="Bar_5" d="M142.999 4.40341C142.999 2.89196 144.224 1.66669 145.736 1.66669H147.378C148.889 1.66669 150.114 2.89196 150.114 4.40342V69.2639C150.114 71.2288 148.522 72.8216 146.557 72.8216C144.592 72.8216 142.999 71.2288 142.999 69.2639V4.40341Z" fill="#2E4B85"/>
<path id="Bar_6" d="M0.689087 47.9174H7.80458V69.2639C7.80458 71.2288 6.21172 72.8216 4.24683 72.8216C2.28194 72.8216 0.689087 71.2288 0.689087 69.2639V47.9174Z" fill="#FF814A"/>
<path id="Bar_7" d="M35.0806 17.0836H42.1961V69.2639C42.1961 71.2288 40.6033 72.8216 38.6384 72.8216C36.6735 72.8216 35.0806 71.2288 35.0806 69.2639V17.0836Z" fill="#FF814A"/>
<path id="Bar_8" d="M73.0299 38.4301H80.1454V69.2639C80.1454 71.2288 78.5525 72.8216 76.5877 72.8216C74.6228 72.8216 73.0299 71.2288 73.0299 69.2639V38.4301Z" fill="#FF814A"/>
<path id="Bar_9" d="M108.607 51.4751H115.723V69.2639C115.723 71.2288 114.13 72.8216 112.165 72.8216C110.2 72.8216 108.607 71.2288 108.607 69.2639V51.4751Z" fill="#FF814A"/>
<path id="Bar_10" d="M142.999 30.1287H150.114V69.2639C150.114 71.2288 148.522 72.8216 146.557 72.8216C144.592 72.8216 142.999 71.2288 142.999 69.2639V30.1287Z" fill="#FF814A"/>
</g>
</svg>
