<svg width="129" height="82" viewBox="0 0 129 82" fill="none" xmlns="http://www.w3.org/2000/svg">
<g id="Chart">
<path id="Combined Shape" d="M23.0847 12.8889H23.6777V12.296H23.0847V12.8889ZM21.8988 80.1111H21.3058V80.7041H21.8988V80.1111ZM45.5096 12.8889H46.1026V12.296H45.5096V12.8889ZM44.3237 80.1111H43.7307V80.7041H44.3237V80.1111ZM68.4875 80.1111V80.7041H69.0805V80.1111H68.4875ZM67.3016 12.8889V12.296H66.7086V12.8889H67.3016ZM92.1802 12.8889H92.7732V12.296H92.1802V12.8889ZM90.9943 80.1111H90.4013V80.7041H90.9943V80.1111ZM2.37995 80.1111V80.7041H2.9729V80.1111H2.37995ZM1.19403 14.7453V14.1524H0.601073V14.7453H1.19403ZM114.941 12.8889V12.296H114.348V12.8889H114.941ZM116.127 80.1111V80.7041H116.72V80.1111H116.127ZM23.0847 12.296H22.4918V13.4819H23.0847V12.296ZM21.3058 12.8889V15.2897H22.4918V12.8889H21.3058ZM21.3058 20.0913V24.8929H22.4918V20.0913H21.3058ZM21.3058 29.6945V34.4961H22.4918V29.6945H21.3058ZM21.3058 39.2976V44.0992H22.4918V39.2976H21.3058ZM21.3058 48.9008V53.7024H22.4918V48.9008H21.3058ZM21.3058 58.504V63.3056H22.4918V58.504H21.3058ZM21.3058 68.1072V72.9088H22.4918V68.1072H21.3058ZM21.3058 77.7103V80.1111H22.4918V77.7103H21.3058ZM21.8988 80.7041H22.4918V79.5182H21.8988V80.7041ZM23.6777 80.1111V77.7104H22.4918V80.1111H23.6777ZM23.6777 72.9088V68.1072H22.4918V72.9088H23.6777ZM23.6777 63.3056V58.504H22.4918V63.3056H23.6777ZM23.6777 53.7024V48.9008H22.4918V53.7024H23.6777ZM23.6777 44.0992V39.2976H22.4918V44.0992H23.6777ZM23.6777 34.4961V29.6945H22.4918V34.4961H23.6777ZM23.6777 24.8929V20.0913H22.4918V24.8929H23.6777ZM23.6777 15.2897V12.8889H22.4918V15.2897H23.6777ZM45.5096 12.296H44.9166V13.4819H45.5096V12.296ZM43.7307 12.8889V15.2897H44.9166V12.8889H43.7307ZM43.7307 20.0913V24.8929H44.9166V20.0913H43.7307ZM43.7307 29.6945V34.4961H44.9166V29.6945H43.7307ZM43.7307 39.2976V44.0992H44.9166V39.2976H43.7307ZM43.7307 48.9008V53.7024H44.9166V48.9008H43.7307ZM43.7307 58.504V63.3056H44.9166V58.504H43.7307ZM43.7307 68.1072V72.9088H44.9166V68.1072H43.7307ZM43.7307 77.7103V80.1111H44.9166V77.7103H43.7307ZM44.3237 80.7041H44.9166V79.5182H44.3237V80.7041ZM46.1026 80.1111V77.7104H44.9166V80.1111H46.1026ZM46.1026 72.9088V68.1072H44.9166V72.9088H46.1026ZM46.1026 63.3056V58.504H44.9166V63.3056H46.1026ZM46.1026 53.7024V48.9008H44.9166V53.7024H46.1026ZM46.1026 44.0992V39.2976H44.9166V44.0992H46.1026ZM46.1026 34.4961V29.6945H44.9166V34.4961H46.1026ZM46.1026 24.8929V20.0913H44.9166V24.8929H46.1026ZM46.1026 15.2897V12.8889H44.9166V15.2897H46.1026ZM68.4875 79.5182H67.8945V80.7041H68.4875V79.5182ZM67.8945 80.1111V77.7104H66.7086V80.1111H67.8945ZM67.8945 72.9088V68.1072H66.7086V72.9088H67.8945ZM67.8945 63.3056V58.504H66.7086V63.3056H67.8945ZM67.8945 53.7024V48.9008H66.7086V53.7024H67.8945ZM67.8945 44.0992V39.2976H66.7086V44.0992H67.8945ZM67.8945 34.4961V29.6945H66.7086V34.4961H67.8945ZM67.8945 24.8929V20.0913H66.7086V24.8929H67.8945ZM67.8945 15.2897V12.8889H66.7086V15.2897H67.8945ZM67.3016 13.4819H67.8945V12.296H67.3016V13.4819ZM67.8945 12.8889V15.2897H69.0805V12.8889H67.8945ZM67.8945 20.0913V24.8929H69.0805V20.0913H67.8945ZM67.8945 29.6945V34.4961H69.0805V29.6945H67.8945ZM67.8945 39.2976V44.0992H69.0805V39.2976H67.8945ZM67.8945 48.9008V53.7024H69.0805V48.9008H67.8945ZM67.8945 58.504V63.3056H69.0805V58.504H67.8945ZM67.8945 68.1072V72.9088H69.0805V68.1072H67.8945ZM67.8945 77.7103V80.1111H69.0805V77.7103H67.8945ZM92.1802 12.296H91.5873V13.4819H92.1802V12.296ZM90.4013 12.8889V15.2897H91.5873V12.8889H90.4013ZM90.4013 20.0913V24.8929H91.5873V20.0913H90.4013ZM90.4013 29.6945V34.4961H91.5873V29.6945H90.4013ZM90.4013 39.2976V44.0992H91.5873V39.2976H90.4013ZM90.4013 48.9008V53.7024H91.5873V48.9008H90.4013ZM90.4013 58.504V63.3056H91.5873V58.504H90.4013ZM90.4013 68.1072V72.9088H91.5873V68.1072H90.4013ZM90.4013 77.7103V80.1111H91.5873V77.7103H90.4013ZM90.9943 80.7041H91.5873V79.5182H90.9943V80.7041ZM92.7732 80.1111V77.7104H91.5873V80.1111H92.7732ZM92.7732 72.9088V68.1072H91.5873V72.9088H92.7732ZM92.7732 63.3056V58.504H91.5873V63.3056H92.7732ZM92.7732 53.7024V48.9008H91.5873V53.7024H92.7732ZM92.7732 44.0992V39.2976H91.5873V44.0992H92.7732ZM92.7732 34.4961V29.6945H91.5873V34.4961H92.7732ZM92.7732 24.8929V20.0913H91.5873V24.8929H92.7732ZM92.7732 15.2897V12.8889H91.5873V15.2897H92.7732ZM2.37995 79.5182H1.78699V80.7041H2.37995V79.5182ZM1.78699 80.1111V77.7766H0.601073V80.1111H1.78699ZM1.78699 73.1077V68.4387H0.601073V73.1077H1.78699ZM1.78699 63.7697V59.1007H0.601073V63.7697H1.78699ZM1.78699 54.4317V49.7627H0.601073V54.4317H1.78699ZM1.78699 45.0937V40.4248H0.601073V45.0937H1.78699ZM1.78699 35.7558V31.0868H0.601073V35.7558H1.78699ZM1.78699 26.4178V21.7488H0.601073V26.4178H1.78699ZM1.78699 17.0798V14.7453H0.601073V17.0798H1.78699ZM1.19403 15.3383H1.78699V14.1524H1.19403V15.3383ZM1.78699 14.7453V17.0798H2.9729V14.7453H1.78699ZM1.78699 21.7488V26.4178H2.9729V21.7488H1.78699ZM1.78699 31.0868V35.7558H2.9729V31.0868H1.78699ZM1.78699 40.4248V45.0938H2.9729V40.4248H1.78699ZM1.78699 49.7627V54.4317H2.9729V49.7627H1.78699ZM1.78699 59.1007V63.7697H2.9729V59.1007H1.78699ZM1.78699 68.4387V73.1077H2.9729V68.4387H1.78699ZM1.78699 77.7767V80.1111H2.9729V77.7767H1.78699ZM115.534 80.1111V77.7104H114.348V80.1111H115.534ZM115.534 72.9088V68.1072H114.348V72.9088H115.534ZM115.534 63.3056V58.504H114.348V63.3056H115.534ZM115.534 53.7024V48.9008H114.348V53.7024H115.534ZM115.534 44.0992V39.2976H114.348V44.0992H115.534ZM115.534 34.4961V29.6945H114.348V34.4961H115.534ZM115.534 24.8929V20.0913H114.348V24.8929H115.534ZM115.534 15.2897V12.8889H114.348V15.2897H115.534ZM114.941 13.4819H115.534V12.296H114.941V13.4819ZM115.534 12.8889V15.2897H116.72V12.8889H115.534ZM115.534 20.0913V24.8929H116.72V20.0913H115.534ZM115.534 29.6945V34.4961H116.72V29.6945H115.534ZM115.534 39.2976V44.0992H116.72V39.2976H115.534ZM115.534 48.9008V53.7024H116.72V48.9008H115.534ZM115.534 58.504V63.3056H116.72V58.504H115.534ZM115.534 68.1072V72.9088H116.72V68.1072H115.534ZM115.534 77.7103V80.1111H116.72V77.7103H115.534ZM116.127 79.5182H115.534V80.7041H116.127V79.5182Z" fill="#0A1826"/>
<path id="Path" d="M1.28571 80.1111L22.1106 52.7337L43.0261 70.7956L65.2039 38.9124L88.0949 57.4098L116.036 12.8889" stroke="#0BB885" stroke-width="2.96479"/>
<g id="Dot" filter="url(#filter0_d_241_37927)">
<circle cx="114.305" cy="14.5984" r="9.48732" fill="#1C243F"/>
<circle cx="114.305" cy="14.5984" r="6.52254" stroke="#0BB885" stroke-width="5.92958"/>
</g>
</g>
<defs>
<filter id="filter0_d_241_37927" x="95.3304" y="0.367453" width="33.2057" height="33.2056" filterUnits="userSpaceOnUse" color-interpolation-filters="sRGB">
<feFlood flood-opacity="0" result="BackgroundImageFix"/>
<feColorMatrix in="SourceAlpha" type="matrix" values="0 0 0 0 0 0 0 0 0 0 0 0 0 0 0 0 0 0 127 0" result="hardAlpha"/>
<feOffset dx="-2.37183" dy="2.37183"/>
<feGaussianBlur stdDeviation="3.55775"/>
<feColorMatrix type="matrix" values="0 0 0 0 0 0 0 0 0 0.811765 0 0 0 0 0.909804 0 0 0 0.6819 0"/>
<feBlend mode="normal" in2="BackgroundImageFix" result="effect1_dropShadow_241_37927"/>
<feBlend mode="normal" in="SourceGraphic" in2="effect1_dropShadow_241_37927" result="shape"/>
</filter>
</defs>
</svg>
