<svg width="18" height="18" viewBox="0 0 18 18" fill="none" xmlns="http://www.w3.org/2000/svg">
<g id="Frame 348">
<g id="Group 402">
<path id="Union" fill-rule="evenodd" clip-rule="evenodd" d="M7.2 3.60002C5.77598 3.60002 4.38393 4.02229 3.1999 4.81344C2.01586 5.60459 1.09302 6.72907 0.548071 8.0447C0.00311964 9.36033 -0.139464 10.808 0.138349 12.2047C0.416163 13.6013 1.1019 14.8843 2.10883 15.8912C3.11577 16.8981 4.39869 17.5839 5.79535 17.8617C7.19202 18.1395 8.6397 17.9969 9.95532 17.452C11.271 16.907 12.3954 15.9842 13.1866 14.8001C13.9777 13.6161 14.4 12.224 14.4 10.8C14.4 10.303 13.9971 9.90002 13.5 9.90002H9C8.50295 9.90002 8.1 9.49708 8.1 9.00002V4.50002C8.1 4.00297 7.69706 3.60002 7.2 3.60002Z" fill="#0BB885"/>
<path id="Union_2" d="M10.8001 0C10.5614 0 10.3325 0.0948211 10.1637 0.263604C9.99491 0.432387 9.90009 0.661305 9.90009 0.9V7.2C9.90009 7.4387 9.99491 7.66761 10.1637 7.8364C10.3325 8.00518 10.5614 8.1 10.8001 8.1L17.1001 8.1C17.3388 8.1 17.5677 8.00518 17.7365 7.83639C17.9053 7.66761 18.0001 7.43869 18.0001 7.2C18.0001 5.29044 17.2415 3.45909 15.8913 2.10883C14.541 0.758569 12.7096 0 10.8001 0Z" fill="#98FFE0"/>
</g>
</g>
</svg>
