<svg width="18" height="18" viewBox="0 0 18 18" fill="none" xmlns="http://www.w3.org/2000/svg">
<g id="Frame 349">
<g id="Group 403">
<path id="Union" d="M5.4663 3.16265C5.96327 2.88492 6.38555 2.46542 6.57233 1.92762L6.77508 1.34384C7.05449 0.539325 7.81272 0 8.66438 0H9.33567C10.1873 0 10.9456 0.539325 11.225 1.34384L11.4277 1.92763C11.6145 2.46542 12.0368 2.88492 12.5337 3.16265C13.0136 3.43081 13.5618 3.56491 14.1012 3.45897L14.8655 3.30886C15.6916 3.14662 16.5308 3.51904 16.9648 4.24043L17.2265 4.67546C17.6848 5.43743 17.5851 6.41051 16.9816 7.06362L16.556 7.52433C16.1896 7.92091 16.0324 8.46004 16.0324 8.99998C16.0324 9.53992 16.1896 10.079 16.556 10.4756L16.9816 10.9363C17.5851 11.5894 17.6848 12.5625 17.2264 13.3245L16.9648 13.7595C16.5308 14.4809 15.6916 14.8533 14.8655 14.6911L14.1013 14.541C13.5619 14.4351 13.0136 14.5692 12.5338 14.8373C12.0368 15.1151 11.6145 15.5346 11.4277 16.0724L11.225 16.6562C10.9456 17.4607 10.1873 18 9.33567 18H8.66438C7.81272 18 7.05449 17.4607 6.77508 16.6562L6.57234 16.0724C6.38555 15.5346 5.96326 15.1151 5.46628 14.8373C4.98639 14.5692 4.43814 14.435 3.89871 14.541L3.1345 14.6911C2.30843 14.8533 1.46919 14.4809 1.03524 13.7595L0.773549 13.3245C0.31519 12.5625 0.414946 11.5894 1.01837 10.9363L1.44409 10.4755C1.81048 10.079 1.96768 9.53989 1.96768 8.99998C1.96768 8.46007 1.81048 7.92096 1.44409 7.5244L1.01837 7.06362C0.414945 6.41051 0.31519 5.43742 0.773548 4.67546L1.03524 4.24043C1.46919 3.51903 2.30843 3.14662 3.1345 3.30886L3.89881 3.45897C4.43822 3.56491 4.98644 3.43082 5.4663 3.16265Z" fill="#0BB885"/>
<path id="Oval" fill-rule="evenodd" clip-rule="evenodd" d="M8.9998 11.4545C10.4122 11.4545 11.5572 10.3556 11.5572 8.99999C11.5572 7.64438 10.4122 6.54544 8.9998 6.54544C7.58738 6.54544 6.44238 7.64438 6.44238 8.99999C6.44238 10.3556 7.58738 11.4545 8.9998 11.4545Z" fill="#98FFE0"/>
</g>
</g>
</svg>
