<svg width="398" height="258" viewBox="0 0 398 258" fill="none" xmlns="http://www.w3.org/2000/svg">
<g clip-path="url(#clip0_1831_1395)">
<g clip-path="url(#clip1_1831_1395)">
<path d="M49.3555 244.574H50.2998V250.149C50.2998 250.646 50.2084 251.069 50.0256 251.417C49.8428 251.764 49.5852 252.028 49.2527 252.209C48.9201 252.389 48.5279 252.479 48.0761 252.479C47.6496 252.479 47.2701 252.402 46.9376 252.247C46.6051 252.089 46.3436 251.866 46.1532 251.577C45.9628 251.287 45.8676 250.943 45.8676 250.545H46.7967C46.7967 250.766 46.8513 250.959 46.9604 251.124C47.0721 251.286 47.2244 251.413 47.4174 251.504C47.6103 251.596 47.8299 251.641 48.0761 251.641C48.3477 251.641 48.5787 251.584 48.7691 251.47C48.9595 251.356 49.1042 251.188 49.2032 250.967C49.3047 250.744 49.3555 250.471 49.3555 250.149V244.574ZM53.7914 252.51C53.4208 252.51 53.0844 252.44 52.7824 252.3C52.4803 252.158 52.2404 251.954 52.0627 251.687C51.885 251.418 51.7962 251.093 51.7962 250.712C51.7962 250.377 51.8622 250.106 51.9942 249.897C52.1262 249.687 52.3026 249.522 52.5234 249.402C52.7443 249.283 52.988 249.194 53.2545 249.136C53.5236 249.075 53.7939 249.027 54.0655 248.991C54.4209 248.946 54.709 248.911 54.9299 248.888C55.1533 248.863 55.3157 248.821 55.4173 248.763C55.5213 248.704 55.5734 248.603 55.5734 248.458V248.428C55.5734 248.052 55.4706 247.76 55.2649 247.552C55.0619 247.344 54.7535 247.24 54.3397 247.24C53.9107 247.24 53.5743 247.334 53.3307 247.521C53.087 247.709 52.9156 247.91 52.8166 248.123L51.9637 247.818C52.116 247.463 52.3191 247.186 52.5729 246.988C52.8293 246.788 53.1085 246.648 53.4106 246.57C53.7152 246.488 54.0148 246.448 54.3092 246.448C54.4971 246.448 54.7128 246.471 54.9565 246.516C55.2028 246.559 55.4401 246.65 55.6686 246.787C55.8996 246.924 56.0912 247.131 56.2435 247.407C56.3958 247.684 56.472 248.055 56.472 248.519V252.372H55.5734V251.58H55.5277C55.4668 251.707 55.3652 251.843 55.2231 251.988C55.0809 252.133 54.8918 252.256 54.6557 252.357C54.4196 252.459 54.1315 252.51 53.7914 252.51ZM53.9285 251.702C54.2838 251.702 54.5834 251.632 54.8271 251.493C55.0733 251.353 55.2586 251.173 55.383 250.952C55.5099 250.731 55.5734 250.499 55.5734 250.255V249.433C55.5353 249.479 55.4515 249.52 55.3221 249.559C55.1951 249.594 55.0479 249.626 54.8804 249.654C54.7154 249.679 54.5542 249.702 54.3968 249.722C54.242 249.74 54.1163 249.755 54.0198 249.768C53.7863 249.798 53.568 249.848 53.3649 249.916C53.1644 249.982 53.0019 250.083 52.8775 250.217C52.7557 250.349 52.6948 250.53 52.6948 250.758C52.6948 251.07 52.8103 251.306 53.0413 251.466C53.2748 251.624 53.5705 251.702 53.9285 251.702ZM59.0107 248.854V252.372H58.1121V246.524H58.9803V247.438H59.0564C59.1935 247.141 59.4017 246.902 59.6809 246.722C59.9601 246.539 60.3206 246.448 60.7623 246.448C61.1583 246.448 61.5048 246.529 61.8017 246.691C62.0987 246.851 62.3297 247.095 62.4947 247.422C62.6597 247.747 62.7422 248.159 62.7422 248.656V252.372H61.8436V248.717C61.8436 248.258 61.7243 247.9 61.4857 247.643C61.2471 247.384 60.9196 247.255 60.5033 247.255C60.2165 247.255 59.9601 247.317 59.7342 247.442C59.5108 247.566 59.3344 247.747 59.2049 247.986C59.0755 248.225 59.0107 248.514 59.0107 248.854Z" fill="#B9B9C3"/>
<path d="M88.5351 252.372V244.574H93.2109V245.412H89.4794V248.047H92.8606V248.885H89.4794V252.372H88.5351ZM96.7292 252.494C96.1657 252.494 95.6796 252.37 95.2709 252.121C94.8647 251.87 94.5512 251.52 94.3304 251.07C94.1121 250.618 94.0029 250.093 94.0029 249.494C94.0029 248.895 94.1121 248.367 94.3304 247.91C94.5512 247.45 94.8584 247.092 95.2518 246.836C95.6478 246.577 96.1098 246.448 96.6378 246.448C96.9424 246.448 97.2432 246.498 97.5402 246.6C97.8372 246.702 98.1076 246.867 98.3513 247.095C98.595 247.321 98.7892 247.62 98.9338 247.994C99.0785 248.367 99.1509 248.826 99.1509 249.372V249.753H94.6426V248.976H98.237C98.237 248.646 98.171 248.352 98.039 248.093C97.9096 247.834 97.7243 247.629 97.4831 247.48C97.2445 247.33 96.9627 247.255 96.6378 247.255C96.2799 247.255 95.9702 247.344 95.7088 247.521C95.4498 247.697 95.2506 247.925 95.111 248.207C94.9713 248.489 94.9015 248.791 94.9015 249.113V249.631C94.9015 250.073 94.9777 250.447 95.13 250.754C95.2848 251.059 95.4993 251.291 95.7735 251.451C96.0476 251.608 96.3662 251.687 96.7292 251.687C96.9653 251.687 97.1785 251.654 97.3689 251.588C97.5618 251.52 97.7281 251.418 97.8677 251.283C98.0073 251.146 98.1152 250.976 98.1914 250.773L99.0595 251.017C98.9681 251.311 98.8145 251.57 98.5988 251.794C98.383 252.015 98.1165 252.187 97.7992 252.312C97.4819 252.433 97.1252 252.494 96.7292 252.494ZM100.64 252.372V244.574H101.538V247.453H101.614C101.68 247.351 101.772 247.222 101.889 247.065C102.008 246.905 102.178 246.762 102.399 246.638C102.622 246.511 102.924 246.448 103.305 246.448C103.797 246.448 104.232 246.571 104.607 246.817C104.983 247.063 105.276 247.412 105.487 247.864C105.698 248.316 105.803 248.849 105.803 249.463C105.803 250.083 105.698 250.62 105.487 251.074C105.276 251.526 104.984 251.876 104.611 252.125C104.238 252.371 103.808 252.494 103.32 252.494C102.945 252.494 102.644 252.432 102.418 252.308C102.192 252.181 102.018 252.037 101.896 251.877C101.774 251.715 101.68 251.58 101.614 251.474H101.508V252.372H100.64ZM101.523 249.448C101.523 249.89 101.588 250.279 101.717 250.617C101.847 250.952 102.036 251.215 102.285 251.405C102.533 251.593 102.838 251.687 103.198 251.687C103.574 251.687 103.888 251.588 104.139 251.39C104.393 251.19 104.583 250.92 104.71 250.583C104.84 250.243 104.904 249.864 104.904 249.448C104.904 249.037 104.841 248.666 104.714 248.336C104.589 248.004 104.4 247.741 104.147 247.548C103.895 247.353 103.579 247.255 103.198 247.255C102.833 247.255 102.526 247.348 102.277 247.533C102.028 247.716 101.84 247.972 101.713 248.302C101.587 248.63 101.523 249.012 101.523 249.448Z" fill="#B9B9C3"/>
<path d="M129.698 244.574H130.825L133.475 251.047H133.567L136.217 244.574H137.344V252.372H136.461V246.448H136.384L133.947 252.372H133.095L130.658 246.448H130.582V252.372H129.698V244.574ZM140.837 252.51C140.466 252.51 140.13 252.44 139.827 252.3C139.525 252.158 139.286 251.954 139.108 251.687C138.93 251.418 138.841 251.093 138.841 250.712C138.841 250.377 138.907 250.106 139.039 249.897C139.171 249.687 139.348 249.522 139.569 249.402C139.789 249.283 140.033 249.194 140.3 249.136C140.569 249.075 140.839 249.027 141.111 248.991C141.466 248.946 141.754 248.911 141.975 248.888C142.198 248.863 142.361 248.821 142.462 248.763C142.566 248.704 142.618 248.603 142.618 248.458V248.428C142.618 248.052 142.516 247.76 142.31 247.552C142.107 247.344 141.799 247.24 141.385 247.24C140.956 247.24 140.619 247.334 140.376 247.521C140.132 247.709 139.961 247.91 139.862 248.123L139.009 247.818C139.161 247.463 139.364 247.186 139.618 246.988C139.874 246.788 140.154 246.648 140.456 246.57C140.76 246.488 141.06 246.448 141.354 246.448C141.542 246.448 141.758 246.471 142.002 246.516C142.248 246.559 142.485 246.65 142.714 246.787C142.945 246.924 143.136 247.131 143.289 247.407C143.441 247.684 143.517 248.055 143.517 248.519V252.372H142.618V251.58H142.573C142.512 251.707 142.41 251.843 142.268 251.988C142.126 252.133 141.937 252.256 141.701 252.357C141.465 252.459 141.177 252.51 140.837 252.51ZM140.974 251.702C141.329 251.702 141.629 251.632 141.872 251.493C142.118 251.353 142.304 251.173 142.428 250.952C142.555 250.731 142.618 250.499 142.618 250.255V249.433C142.58 249.479 142.497 249.52 142.367 249.559C142.24 249.594 142.093 249.626 141.926 249.654C141.761 249.679 141.599 249.702 141.442 249.722C141.287 249.74 141.161 249.755 141.065 249.768C140.831 249.798 140.613 249.848 140.41 249.916C140.21 249.982 140.047 250.083 139.923 250.217C139.801 250.349 139.74 250.53 139.74 250.758C139.74 251.07 139.855 251.306 140.086 251.466C140.32 251.624 140.616 251.702 140.974 251.702ZM145.157 252.372V246.524H146.025V247.407H146.086C146.193 247.118 146.386 246.883 146.665 246.703C146.944 246.523 147.259 246.432 147.609 246.432C147.675 246.432 147.758 246.434 147.857 246.436C147.956 246.439 148.031 246.443 148.082 246.448V247.362C148.051 247.354 147.981 247.343 147.872 247.327C147.766 247.31 147.653 247.301 147.533 247.301C147.249 247.301 146.995 247.36 146.772 247.48C146.551 247.596 146.376 247.759 146.246 247.967C146.119 248.173 146.056 248.407 146.056 248.671V252.372H145.157Z" fill="#B9B9C3"/>
<path d="M171.914 252.372H170.924L173.788 244.574H174.763L177.626 252.372H176.636L174.306 245.808H174.245L171.914 252.372ZM172.28 249.326H176.27V250.164H172.28V249.326ZM178.719 254.566V246.524H179.587V247.453H179.694C179.76 247.351 179.851 247.222 179.968 247.065C180.087 246.905 180.257 246.762 180.478 246.638C180.701 246.511 181.003 246.448 181.384 246.448C181.877 246.448 182.311 246.571 182.686 246.817C183.062 247.063 183.355 247.412 183.566 247.864C183.777 248.316 183.882 248.849 183.882 249.463C183.882 250.083 183.777 250.62 183.566 251.074C183.355 251.526 183.063 251.876 182.69 252.125C182.317 252.371 181.887 252.494 181.399 252.494C181.024 252.494 180.723 252.432 180.497 252.308C180.271 252.181 180.097 252.037 179.975 251.877C179.853 251.715 179.76 251.58 179.694 251.474H179.617V254.566H178.719ZM179.602 249.448C179.602 249.89 179.667 250.279 179.796 250.617C179.926 250.952 180.115 251.215 180.364 251.405C180.612 251.593 180.917 251.687 181.278 251.687C181.653 251.687 181.967 251.588 182.218 251.39C182.472 251.19 182.662 250.92 182.789 250.583C182.919 250.243 182.983 249.864 182.983 249.448C182.983 249.037 182.92 248.666 182.793 248.336C182.669 248.004 182.479 247.741 182.226 247.548C181.974 247.353 181.658 247.255 181.278 247.255C180.912 247.255 180.605 247.348 180.356 247.533C180.107 247.716 179.919 247.972 179.793 248.302C179.666 248.63 179.602 249.012 179.602 249.448ZM185.253 252.372V246.524H186.121V247.407H186.182C186.288 247.118 186.481 246.883 186.761 246.703C187.04 246.523 187.355 246.432 187.705 246.432C187.771 246.432 187.853 246.434 187.952 246.436C188.051 246.439 188.126 246.443 188.177 246.448V247.362C188.147 247.354 188.077 247.343 187.968 247.327C187.861 247.31 187.748 247.301 187.629 247.301C187.344 247.301 187.091 247.36 186.867 247.48C186.646 247.596 186.471 247.759 186.342 247.967C186.215 248.173 186.151 248.407 186.151 248.671V252.372H185.253Z" fill="#B9B9C3"/>
<path d="M211.055 244.574H212.182L214.832 251.047H214.923L217.573 244.574H218.7V252.372H217.817V246.448H217.741L215.304 252.372H214.451L212.014 246.448H211.938V252.372H211.055V244.574ZM222.193 252.51C221.822 252.51 221.486 252.44 221.184 252.3C220.882 252.158 220.642 251.954 220.464 251.687C220.287 251.418 220.198 251.093 220.198 250.712C220.198 250.377 220.264 250.106 220.396 249.897C220.528 249.687 220.704 249.522 220.925 249.402C221.146 249.283 221.389 249.194 221.656 249.136C221.925 249.075 222.195 249.027 222.467 248.991C222.822 248.946 223.111 248.911 223.331 248.888C223.555 248.863 223.717 248.821 223.819 248.763C223.923 248.704 223.975 248.603 223.975 248.458V248.428C223.975 248.052 223.872 247.76 223.666 247.552C223.463 247.344 223.155 247.24 222.741 247.24C222.312 247.24 221.976 247.334 221.732 247.521C221.488 247.709 221.317 247.91 221.218 248.123L220.365 247.818C220.518 247.463 220.721 247.186 220.974 246.988C221.231 246.788 221.51 246.648 221.812 246.57C222.117 246.488 222.416 246.448 222.711 246.448C222.899 246.448 223.114 246.471 223.358 246.516C223.604 246.559 223.842 246.65 224.07 246.787C224.301 246.924 224.493 247.131 224.645 247.407C224.797 247.684 224.874 248.055 224.874 248.519V252.372H223.975V251.58H223.929C223.868 251.707 223.767 251.843 223.625 251.988C223.482 252.133 223.293 252.256 223.057 252.357C222.821 252.459 222.533 252.51 222.193 252.51ZM222.33 251.702C222.685 251.702 222.985 251.632 223.229 251.493C223.475 251.353 223.66 251.173 223.785 250.952C223.911 250.731 223.975 250.499 223.975 250.255V249.433C223.937 249.479 223.853 249.52 223.724 249.559C223.597 249.594 223.449 249.626 223.282 249.654C223.117 249.679 222.956 249.702 222.798 249.722C222.643 249.74 222.518 249.755 222.421 249.768C222.188 249.798 221.97 249.848 221.766 249.916C221.566 249.982 221.403 250.083 221.279 250.217C221.157 250.349 221.096 250.53 221.096 250.758C221.096 251.07 221.212 251.306 221.443 251.466C221.676 251.624 221.972 251.702 222.33 251.702ZM226.883 254.566C226.731 254.566 226.595 254.553 226.476 254.528C226.356 254.505 226.274 254.482 226.228 254.459L226.457 253.667C226.675 253.723 226.868 253.743 227.035 253.728C227.203 253.713 227.351 253.638 227.481 253.503C227.613 253.371 227.733 253.157 227.843 252.86L228.01 252.403L225.847 246.524H226.822L228.437 251.184H228.497L230.112 246.524H231.087L228.604 253.225C228.492 253.527 228.354 253.777 228.189 253.975C228.024 254.176 227.832 254.324 227.614 254.421C227.398 254.517 227.155 254.566 226.883 254.566Z" fill="#B9B9C3"/>
<path d="M258.901 245.468H259.845V251.042C259.845 251.54 259.754 251.962 259.571 252.31C259.388 252.658 259.13 252.922 258.798 253.102C258.465 253.282 258.073 253.373 257.621 253.373C257.195 253.373 256.815 253.295 256.483 253.14C256.15 252.983 255.889 252.76 255.699 252.47C255.508 252.181 255.413 251.837 255.413 251.438H256.342C256.342 251.659 256.397 251.852 256.506 252.017C256.617 252.18 256.77 252.306 256.963 252.398C257.156 252.489 257.375 252.535 257.621 252.535C257.893 252.535 258.124 252.478 258.314 252.364C258.505 252.249 258.649 252.082 258.748 251.861C258.85 251.638 258.901 251.365 258.901 251.042V245.468ZM265.301 250.875V247.417H266.2V253.266H265.301V252.276H265.241C265.103 252.573 264.89 252.826 264.601 253.034C264.311 253.239 263.946 253.342 263.504 253.342C263.139 253.342 262.814 253.262 262.529 253.102C262.245 252.94 262.022 252.696 261.859 252.371C261.697 252.044 261.616 251.631 261.616 251.134V247.417H262.514V251.073C262.514 251.499 262.634 251.839 262.872 252.093C263.113 252.347 263.42 252.474 263.794 252.474C264.017 252.474 264.244 252.417 264.475 252.303C264.709 252.188 264.904 252.013 265.062 251.777C265.221 251.541 265.301 251.24 265.301 250.875ZM268.745 249.748V253.266H267.846V247.417H268.714V248.331H268.79C268.927 248.034 269.135 247.796 269.415 247.615C269.694 247.433 270.054 247.341 270.496 247.341C270.892 247.341 271.239 247.422 271.536 247.585C271.833 247.745 272.064 247.989 272.229 248.316C272.394 248.641 272.476 249.052 272.476 249.55V253.266H271.577V249.611C271.577 249.151 271.458 248.793 271.219 248.537C270.981 248.278 270.653 248.148 270.237 248.148C269.95 248.148 269.694 248.211 269.468 248.335C269.245 248.459 269.068 248.641 268.939 248.88C268.809 249.118 268.745 249.408 268.745 249.748Z" fill="#B9B9C3"/>
<path d="M298.096 244.574H299.04V250.149C299.04 250.646 298.949 251.069 298.766 251.417C298.583 251.764 298.325 252.028 297.993 252.209C297.66 252.389 297.268 252.479 296.816 252.479C296.39 252.479 296.01 252.402 295.678 252.247C295.345 252.089 295.084 251.866 294.893 251.577C294.703 251.287 294.608 250.943 294.608 250.545H295.537C295.537 250.766 295.591 250.959 295.701 251.124C295.812 251.286 295.965 251.413 296.158 251.504C296.35 251.596 296.57 251.641 296.816 251.641C297.088 251.641 297.319 251.584 297.509 251.47C297.7 251.356 297.844 251.188 297.943 250.967C298.045 250.744 298.096 250.471 298.096 250.149V244.574ZM304.496 249.981V246.524H305.395V252.372H304.496V251.382H304.435C304.298 251.679 304.085 251.932 303.796 252.14C303.506 252.346 303.141 252.449 302.699 252.449C302.334 252.449 302.009 252.369 301.724 252.209C301.44 252.046 301.217 251.803 301.054 251.478C300.892 251.15 300.811 250.738 300.811 250.24V246.524H301.709V250.179C301.709 250.606 301.828 250.946 302.067 251.2C302.308 251.454 302.615 251.58 302.988 251.58C303.212 251.58 303.439 251.523 303.67 251.409C303.904 251.295 304.099 251.12 304.256 250.884C304.416 250.648 304.496 250.347 304.496 249.981ZM307.939 244.574V252.372H307.041V244.574H307.939ZM310.164 254.566C310.012 254.566 309.876 254.553 309.757 254.528C309.637 254.505 309.555 254.482 309.509 254.459L309.738 253.667C309.956 253.723 310.149 253.743 310.316 253.728C310.484 253.713 310.632 253.638 310.762 253.503C310.894 253.371 311.014 253.157 311.124 252.86L311.291 252.403L309.128 246.524H310.103L311.718 251.184H311.778L313.393 246.524H314.368L311.885 253.225C311.773 253.527 311.635 253.777 311.47 253.975C311.305 254.176 311.113 254.324 310.895 254.421C310.679 254.517 310.436 254.566 310.164 254.566Z" fill="#B9B9C3"/>
<path d="M337.704 252.372H336.714L339.577 244.574H340.552L343.415 252.372H342.425L340.095 245.808H340.034L337.704 252.372ZM338.069 249.326H342.06V250.164H338.069V249.326ZM348.194 249.981V246.524H349.092V252.372H348.194V251.382H348.133C347.996 251.679 347.783 251.932 347.493 252.14C347.204 252.346 346.838 252.449 346.397 252.449C346.031 252.449 345.706 252.369 345.422 252.209C345.138 252.046 344.914 251.803 344.752 251.478C344.589 251.15 344.508 250.738 344.508 250.24V246.524H345.407V250.179C345.407 250.606 345.526 250.946 345.765 251.2C346.006 251.454 346.313 251.58 346.686 251.58C346.909 251.58 347.137 251.523 347.368 251.409C347.601 251.295 347.797 251.12 347.954 250.884C348.114 250.648 348.194 250.347 348.194 249.981ZM353.099 254.687C352.665 254.687 352.292 254.632 351.98 254.52C351.667 254.411 351.407 254.266 351.199 254.086C350.993 253.908 350.83 253.718 350.708 253.515L351.424 253.012C351.505 253.119 351.608 253.241 351.732 253.378C351.856 253.517 352.027 253.638 352.242 253.739C352.461 253.843 352.746 253.896 353.099 253.896C353.571 253.896 353.961 253.781 354.268 253.553C354.575 253.324 354.729 252.966 354.729 252.479V251.291H354.653C354.587 251.398 354.493 251.53 354.371 251.687C354.252 251.842 354.079 251.98 353.853 252.102C353.63 252.221 353.328 252.281 352.947 252.281C352.475 252.281 352.051 252.169 351.675 251.946C351.302 251.723 351.006 251.398 350.788 250.971C350.572 250.545 350.464 250.027 350.464 249.418C350.464 248.819 350.57 248.297 350.78 247.853C350.991 247.406 351.284 247.061 351.66 246.817C352.035 246.571 352.47 246.448 352.962 246.448C353.343 246.448 353.645 246.511 353.868 246.638C354.094 246.762 354.267 246.905 354.386 247.065C354.508 247.222 354.602 247.351 354.668 247.453H354.759V246.524H355.627V252.54C355.627 253.043 355.513 253.451 355.285 253.766C355.059 254.083 354.754 254.316 354.371 254.463C353.99 254.613 353.566 254.687 353.099 254.687ZM353.069 251.474C353.429 251.474 353.734 251.391 353.982 251.226C354.231 251.061 354.42 250.824 354.55 250.514C354.679 250.205 354.744 249.834 354.744 249.402C354.744 248.981 354.681 248.609 354.554 248.287C354.427 247.964 354.239 247.712 353.99 247.529C353.741 247.346 353.434 247.255 353.069 247.255C352.688 247.255 352.371 247.351 352.117 247.544C351.865 247.737 351.676 247.996 351.549 248.321C351.425 248.646 351.363 249.006 351.363 249.402C351.363 249.809 351.426 250.168 351.553 250.48C351.683 250.79 351.873 251.033 352.124 251.211C352.378 251.386 352.693 251.474 353.069 251.474Z" fill="#B9B9C3"/>
<path d="M381.38 246.524C381.334 246.138 381.149 245.838 380.824 245.625C380.499 245.412 380.1 245.305 379.628 245.305C379.283 245.305 378.981 245.361 378.722 245.473C378.466 245.585 378.265 245.738 378.12 245.934C377.978 246.129 377.907 246.351 377.907 246.6C377.907 246.808 377.957 246.987 378.056 247.137C378.157 247.284 378.287 247.407 378.444 247.506C378.601 247.603 378.766 247.683 378.939 247.746C379.112 247.807 379.27 247.857 379.415 247.895L380.207 248.108C380.41 248.161 380.636 248.235 380.885 248.329C381.136 248.423 381.376 248.551 381.604 248.713C381.835 248.873 382.026 249.079 382.176 249.33C382.325 249.581 382.4 249.89 382.4 250.255C382.4 250.677 382.29 251.058 382.069 251.398C381.851 251.738 381.531 252.008 381.109 252.209C380.691 252.409 380.182 252.51 379.583 252.51C379.024 252.51 378.541 252.419 378.132 252.239C377.726 252.059 377.406 251.808 377.172 251.485C376.941 251.163 376.811 250.788 376.78 250.362H377.755C377.78 250.656 377.879 250.9 378.052 251.093C378.227 251.283 378.448 251.426 378.714 251.52C378.983 251.611 379.273 251.657 379.583 251.657C379.943 251.657 380.267 251.598 380.554 251.481C380.84 251.362 381.068 251.197 381.235 250.986C381.403 250.773 381.486 250.524 381.486 250.24C381.486 249.981 381.414 249.771 381.269 249.608C381.125 249.446 380.934 249.314 380.698 249.212C380.462 249.111 380.207 249.022 379.933 248.946L378.973 248.671C378.364 248.496 377.882 248.246 377.526 247.921C377.171 247.596 376.993 247.171 376.993 246.646C376.993 246.209 377.111 245.828 377.347 245.503C377.586 245.176 377.906 244.922 378.307 244.742C378.711 244.559 379.161 244.468 379.659 244.468C380.161 244.468 380.608 244.558 380.999 244.738C381.39 244.916 381.7 245.159 381.928 245.469C382.159 245.779 382.281 246.13 382.294 246.524H381.38ZM386.283 252.494C385.72 252.494 385.233 252.37 384.825 252.121C384.419 251.87 384.105 251.52 383.884 251.07C383.666 250.618 383.557 250.093 383.557 249.494C383.557 248.895 383.666 248.367 383.884 247.91C384.105 247.45 384.412 247.092 384.806 246.836C385.202 246.577 385.664 246.448 386.192 246.448C386.496 246.448 386.797 246.498 387.094 246.6C387.391 246.702 387.661 246.867 387.905 247.095C388.149 247.321 388.343 247.62 388.488 247.994C388.632 248.367 388.705 248.826 388.705 249.372V249.753H384.196V248.976H387.791C387.791 248.646 387.725 248.352 387.593 248.093C387.463 247.834 387.278 247.629 387.037 247.48C386.798 247.33 386.517 247.255 386.192 247.255C385.834 247.255 385.524 247.344 385.263 247.521C385.004 247.697 384.804 247.925 384.665 248.207C384.525 248.489 384.455 248.791 384.455 249.113V249.631C384.455 250.073 384.532 250.447 384.684 250.754C384.839 251.059 385.053 251.291 385.327 251.451C385.602 251.608 385.92 251.687 386.283 251.687C386.519 251.687 386.732 251.654 386.923 251.588C387.116 251.52 387.282 251.418 387.422 251.283C387.561 251.146 387.669 250.976 387.745 250.773L388.613 251.017C388.522 251.311 388.368 251.57 388.153 251.794C387.937 252.015 387.67 252.187 387.353 252.312C387.036 252.433 386.679 252.494 386.283 252.494ZM390.072 254.566V246.524H390.94V247.453H391.046C391.112 247.351 391.204 247.222 391.321 247.065C391.44 246.905 391.61 246.762 391.831 246.638C392.054 246.511 392.356 246.448 392.737 246.448C393.23 246.448 393.664 246.571 394.039 246.817C394.415 247.063 394.708 247.412 394.919 247.864C395.13 248.316 395.235 248.849 395.235 249.463C395.235 250.083 395.13 250.62 394.919 251.074C394.708 251.526 394.416 251.876 394.043 252.125C393.67 252.371 393.24 252.494 392.752 252.494C392.377 252.494 392.076 252.432 391.85 252.308C391.624 252.181 391.45 252.037 391.328 251.877C391.206 251.715 391.112 251.58 391.046 251.474H390.97V254.566H390.072ZM390.955 249.448C390.955 249.89 391.02 250.279 391.149 250.617C391.279 250.952 391.468 251.215 391.717 251.405C391.965 251.593 392.27 251.687 392.63 251.687C393.006 251.687 393.32 251.588 393.571 251.39C393.825 251.19 394.015 250.92 394.142 250.583C394.272 250.243 394.336 249.864 394.336 249.448C394.336 249.037 394.273 248.666 394.146 248.336C394.022 248.004 393.832 247.741 393.579 247.548C393.327 247.353 393.011 247.255 392.63 247.255C392.265 247.255 391.958 247.348 391.709 247.533C391.46 247.716 391.272 247.972 391.145 248.302C391.019 248.63 390.955 249.012 390.955 249.448Z" fill="#B9B9C3"/>
</g>
<g clip-path="url(#clip2_1831_1395)">
<path d="M4.24341 203.781V204.619H0.831741V203.781H4.24341ZM5.44282 208.099V207.413L8.0168 204.596C8.31887 204.266 8.56764 203.979 8.7631 203.735C8.95856 203.489 9.10325 203.258 9.19717 203.042C9.29363 202.824 9.34186 202.595 9.34186 202.357C9.34186 202.083 9.27586 201.845 9.14386 201.645C9.0144 201.444 8.83671 201.289 8.61079 201.18C8.38487 201.071 8.13103 201.017 7.84926 201.017C7.54972 201.017 7.28826 201.079 7.06488 201.203C6.84404 201.325 6.67269 201.496 6.55085 201.717C6.43154 201.938 6.37189 202.197 6.37189 202.494H5.47328C5.47328 202.037 5.57862 201.636 5.78932 201.291C6.00001 200.946 6.28685 200.676 6.64985 200.484C7.01538 200.291 7.42534 200.194 7.87972 200.194C8.33664 200.194 8.74152 200.291 9.09437 200.484C9.44721 200.676 9.7239 200.937 9.92443 201.264C10.125 201.592 10.2252 201.956 10.2252 202.357C10.2252 202.644 10.1732 202.924 10.0691 203.198C9.96759 203.47 9.7899 203.773 9.53605 204.108C9.28475 204.441 8.93571 204.847 8.48895 205.327L6.73742 207.2V207.261H10.3623V208.099H5.44282ZM14.4784 208.205C13.9047 208.205 13.4161 208.049 13.0124 207.737C12.6088 207.422 12.3004 206.967 12.0872 206.37C11.874 205.771 11.7673 205.048 11.7673 204.2C11.7673 203.357 11.874 202.637 12.0872 202.041C12.303 201.442 12.6126 200.985 13.0163 200.67C13.4224 200.353 13.9098 200.194 14.4784 200.194C15.047 200.194 15.5331 200.353 15.9367 200.67C16.3429 200.985 16.6526 201.442 16.8658 202.041C17.0816 202.637 17.1895 203.357 17.1895 204.2C17.1895 205.048 17.0828 205.771 16.8696 206.37C16.6564 206.967 16.348 207.422 15.9443 207.737C15.5407 208.049 15.0521 208.205 14.4784 208.205ZM14.4784 207.368C15.047 207.368 15.4887 207.094 15.8035 206.545C16.1182 205.997 16.2756 205.215 16.2756 204.2C16.2756 203.525 16.2033 202.95 16.0586 202.475C15.9164 202 15.7108 201.638 15.4417 201.39C15.1752 201.141 14.8541 201.017 14.4784 201.017C13.9149 201.017 13.4744 201.295 13.1571 201.85C12.8398 202.404 12.6812 203.187 12.6812 204.2C12.6812 204.875 12.7523 205.449 12.8944 205.921C13.0366 206.393 13.2409 206.752 13.5074 206.998C13.7765 207.245 14.1002 207.368 14.4784 207.368ZM21.1799 208.205C20.6062 208.205 20.1175 208.049 19.7139 207.737C19.3103 207.422 19.0019 206.967 18.7887 206.37C18.5754 205.771 18.4688 205.048 18.4688 204.2C18.4688 203.357 18.5754 202.637 18.7887 202.041C19.0044 201.442 19.3141 200.985 19.7177 200.67C20.1239 200.353 20.6113 200.194 21.1799 200.194C21.7485 200.194 22.2346 200.353 22.6382 200.67C23.0444 200.985 23.3541 201.442 23.5673 202.041C23.7831 202.637 23.8909 203.357 23.8909 204.2C23.8909 205.048 23.7843 205.771 23.5711 206.37C23.3579 206.967 23.0494 207.422 22.6458 207.737C22.2422 208.049 21.7536 208.205 21.1799 208.205ZM21.1799 207.368C21.7485 207.368 22.1902 207.094 22.5049 206.545C22.8197 205.997 22.9771 205.215 22.9771 204.2C22.9771 203.525 22.9048 202.95 22.7601 202.475C22.6179 202 22.4123 201.638 22.1432 201.39C21.8767 201.141 21.5556 201.017 21.1799 201.017C20.6163 201.017 20.1759 201.295 19.8586 201.85C19.5413 202.404 19.3827 203.187 19.3827 204.2C19.3827 204.875 19.4537 205.449 19.5959 205.921C19.738 206.393 19.9424 206.752 20.2089 206.998C20.478 207.245 20.8017 207.368 21.1799 207.368Z" fill="#B9B9C3"/>
<path d="M5.61816 168.04V168.877H2.20649V168.04H5.61816ZM9.92557 164.56V172.358H8.98127V165.549H8.93558L7.03175 166.814V165.854L8.98127 164.56H9.92557ZM14.7118 172.464C14.1381 172.464 13.6495 172.308 13.2459 171.996C12.8422 171.681 12.5338 171.225 12.3206 170.629C12.1074 170.03 12.0007 169.306 12.0007 168.459C12.0007 167.616 12.1074 166.896 12.3206 166.3C12.5364 165.701 12.846 165.244 13.2497 164.929C13.6558 164.612 14.1432 164.453 14.7118 164.453C15.2804 164.453 15.7665 164.612 16.1701 164.929C16.5763 165.244 16.886 165.701 17.0992 166.3C17.315 166.896 17.4229 167.616 17.4229 168.459C17.4229 169.306 17.3162 170.03 17.103 170.629C16.8898 171.225 16.5814 171.681 16.1778 171.996C15.7741 172.308 15.2855 172.464 14.7118 172.464ZM14.7118 171.627C15.2804 171.627 15.7221 171.352 16.0369 170.804C16.3516 170.256 16.509 169.474 16.509 168.459C16.509 167.783 16.4367 167.208 16.292 166.734C16.1498 166.259 15.9442 165.897 15.6751 165.648C15.4086 165.4 15.0875 165.275 14.7118 165.275C14.1483 165.275 13.7078 165.553 13.3905 166.109C13.0732 166.663 12.9146 167.446 12.9146 168.459C12.9146 169.134 12.9857 169.707 13.1278 170.18C13.27 170.652 13.4743 171.011 13.7408 171.257C14.0099 171.503 14.3336 171.627 14.7118 171.627ZM21.4133 172.464C20.8396 172.464 20.3509 172.308 19.9473 171.996C19.5437 171.681 19.2353 171.225 19.0221 170.629C18.8088 170.03 18.7022 169.306 18.7022 168.459C18.7022 167.616 18.8088 166.896 19.0221 166.3C19.2378 165.701 19.5475 165.244 19.9511 164.929C20.3573 164.612 20.8447 164.453 21.4133 164.453C21.9819 164.453 22.468 164.612 22.8716 164.929C23.2778 165.244 23.5875 165.701 23.8007 166.3C24.0165 166.896 24.1243 167.616 24.1243 168.459C24.1243 169.306 24.0177 170.03 23.8045 170.629C23.5913 171.225 23.2828 171.681 22.8792 171.996C22.4756 172.308 21.987 172.464 21.4133 172.464ZM21.4133 171.627C21.9819 171.627 22.4236 171.352 22.7383 170.804C23.0531 170.256 23.2105 169.474 23.2105 168.459C23.2105 167.783 23.1382 167.208 22.9935 166.734C22.8513 166.259 22.6457 165.897 22.3766 165.648C22.1101 165.4 21.789 165.275 21.4133 165.275C20.8497 165.275 20.4093 165.553 20.092 166.109C19.7747 166.663 19.6161 167.446 19.6161 168.459C19.6161 169.134 19.6871 169.707 19.8293 170.18C19.9714 170.652 20.1758 171.011 20.4423 171.257C20.7114 171.503 21.0351 171.627 21.4133 171.627Z" fill="#B9B9C3"/>
<path d="M12.2357 136.723C11.662 136.723 11.1734 136.567 10.7698 136.255C10.3662 135.94 10.0577 135.484 9.84451 134.888C9.63128 134.289 9.52466 133.565 9.52466 132.717C9.52466 131.875 9.63128 131.155 9.84451 130.558C10.0603 129.959 10.37 129.502 10.7736 129.188C11.1797 128.87 11.6671 128.712 12.2357 128.712C12.8043 128.712 13.2904 128.87 13.6941 129.188C14.1002 129.502 14.4099 129.959 14.6231 130.558C14.8389 131.155 14.9468 131.875 14.9468 132.717C14.9468 133.565 14.8402 134.289 14.6269 134.888C14.4137 135.484 14.1053 135.94 13.7017 136.255C13.2981 136.567 12.8094 136.723 12.2357 136.723ZM12.2357 135.885C12.8043 135.885 13.246 135.611 13.5608 135.063C13.8756 134.515 14.0329 133.733 14.0329 132.717C14.0329 132.042 13.9606 131.467 13.8159 130.992C13.6737 130.518 13.4681 130.156 13.1991 129.907C12.9325 129.658 12.6114 129.534 12.2357 129.534C11.6722 129.534 11.2318 129.812 10.9145 130.368C10.5972 130.921 10.4385 131.704 10.4385 132.717C10.4385 133.393 10.5096 133.966 10.6517 134.438C10.7939 134.911 10.9982 135.27 11.2648 135.516C11.5338 135.762 11.8575 135.885 12.2357 135.885Z" fill="#B9B9C3"/>
<path d="M7.74674 92.1835V99.9816H6.80244V93.1735H6.75675L4.85292 94.4376V93.4781L6.80244 92.1835H7.74674ZM12.533 100.088C11.9593 100.088 11.4706 99.9321 11.067 99.6199C10.6634 99.3051 10.355 98.8494 10.1418 98.2529C9.92853 97.6538 9.82192 96.9304 9.82192 96.0825C9.82192 95.2398 9.92853 94.5201 10.1418 93.9236C10.3575 93.3245 10.6672 92.8676 11.0708 92.5528C11.477 92.2355 11.9644 92.0769 12.533 92.0769C13.1016 92.0769 13.5877 92.2355 13.9913 92.5528C14.3975 92.8676 14.7071 93.3245 14.9204 93.9236C15.1361 94.5201 15.244 95.2398 15.244 96.0825C15.244 96.9304 15.1374 97.6538 14.9242 98.2529C14.711 98.8494 14.4025 99.3051 13.9989 99.6199C13.5953 99.9321 13.1067 100.088 12.533 100.088ZM12.533 99.2505C13.1016 99.2505 13.5433 98.9764 13.858 98.4281C14.1728 97.8798 14.3302 97.0979 14.3302 96.0825C14.3302 95.4073 14.2578 94.8324 14.1132 94.3577C13.971 93.883 13.7654 93.5213 13.4963 93.2725C13.2298 93.0237 12.9087 92.8993 12.533 92.8993C11.9694 92.8993 11.529 93.1773 11.2117 93.7332C10.8944 94.2866 10.7358 95.0697 10.7358 96.0825C10.7358 96.7578 10.8068 97.3315 10.949 97.8036C11.0911 98.2758 11.2955 98.6349 11.562 98.8812C11.8311 99.1274 12.1547 99.2505 12.533 99.2505ZM19.2345 100.088C18.6608 100.088 18.1721 99.9321 17.7685 99.6199C17.3649 99.3051 17.0565 98.8494 16.8432 98.2529C16.63 97.6538 16.5234 96.9304 16.5234 96.0825C16.5234 95.2398 16.63 94.5201 16.8432 93.9236C17.059 93.3245 17.3687 92.8676 17.7723 92.5528C18.1785 92.2355 18.6658 92.0769 19.2345 92.0769C19.8031 92.0769 20.2892 92.2355 20.6928 92.5528C21.0989 92.8676 21.4086 93.3245 21.6219 93.9236C21.8376 94.5201 21.9455 95.2398 21.9455 96.0825C21.9455 96.9304 21.8389 97.6538 21.6257 98.2529C21.4124 98.8494 21.104 99.3051 20.7004 99.6199C20.2968 99.9321 19.8081 100.088 19.2345 100.088ZM19.2345 99.2505C19.8031 99.2505 20.2448 98.9764 20.5595 98.4281C20.8743 97.8798 21.0317 97.0979 21.0317 96.0825C21.0317 95.4073 20.9593 94.8324 20.8146 94.3577C20.6725 93.883 20.4669 93.5213 20.1978 93.2725C19.9313 93.0237 19.6101 92.8993 19.2345 92.8993C18.6709 92.8993 18.2305 93.1773 17.9132 93.7332C17.5959 94.2866 17.4372 95.0697 17.4372 96.0825C17.4372 96.7578 17.5083 97.3315 17.6505 97.8036C17.7926 98.2758 17.997 98.6349 18.2635 98.8812C18.5326 99.1274 18.8562 99.2505 19.2345 99.2505Z" fill="#B9B9C3"/>
<path d="M2.89401 64.2403V63.555L5.46799 60.7373C5.77007 60.4073 6.01883 60.1205 6.21429 59.8768C6.40975 59.6305 6.55444 59.3995 6.64837 59.1838C6.74483 58.9655 6.79306 58.737 6.79306 58.4984C6.79306 58.2242 6.72706 57.9869 6.59506 57.7864C6.4656 57.5858 6.28791 57.431 6.06199 57.3218C5.83607 57.2127 5.58222 57.1581 5.30045 57.1581C5.00092 57.1581 4.73946 57.2203 4.51608 57.3447C4.29523 57.4665 4.12389 57.6379 4.00204 57.8587C3.88273 58.0796 3.82308 58.3385 3.82308 58.6355H2.92447C2.92447 58.1786 3.02982 57.7775 3.24051 57.4323C3.4512 57.087 3.73804 56.8179 4.10104 56.625C4.46658 56.4321 4.87653 56.3356 5.33092 56.3356C5.78783 56.3356 6.19272 56.4321 6.54556 56.625C6.8984 56.8179 7.17509 57.0781 7.37563 57.4056C7.57617 57.7331 7.67643 58.0973 7.67643 58.4984C7.67643 58.7852 7.6244 59.0657 7.52032 59.3399C7.41878 59.6115 7.24109 59.9148 6.98725 60.2499C6.73594 60.5825 6.38691 60.9886 5.94014 61.4684L4.18862 63.3417V63.4027H7.81351V64.2403H2.89401ZM11.9296 64.347C11.3559 64.347 10.8673 64.1908 10.4636 63.8786C10.06 63.5639 9.75161 63.1082 9.53838 62.5117C9.32515 61.9126 9.21854 61.1891 9.21854 60.3413C9.21854 59.4985 9.32515 58.7789 9.53838 58.1824C9.75415 57.5833 10.0638 57.1264 10.4674 56.8116C10.8736 56.4943 11.361 56.3356 11.9296 56.3356C12.4982 56.3356 12.9843 56.4943 13.3879 56.8116C13.7941 57.1264 14.1038 57.5833 14.317 58.1824C14.5328 58.7789 14.6406 59.4985 14.6406 60.3413C14.6406 61.1891 14.534 61.9126 14.3208 62.5117C14.1076 63.1082 13.7992 63.5639 13.3955 63.8786C12.9919 64.1908 12.5033 64.347 11.9296 64.347ZM11.9296 63.5093C12.4982 63.5093 12.9399 63.2351 13.2547 62.6868C13.5694 62.1385 13.7268 61.3567 13.7268 60.3413C13.7268 59.6661 13.6545 59.0911 13.5098 58.6164C13.3676 58.1417 13.162 57.78 12.8929 57.5313C12.6264 57.2825 12.3053 57.1581 11.9296 57.1581C11.3661 57.1581 10.9256 57.4361 10.6083 57.992C10.291 58.5454 10.1324 59.3285 10.1324 60.3413C10.1324 61.0165 10.2035 61.5902 10.3456 62.0624C10.4878 62.5345 10.6921 62.8937 10.9586 63.1399C11.2277 63.3862 11.5514 63.5093 11.9296 63.5093ZM18.6311 64.347C18.0574 64.347 17.5687 64.1908 17.1651 63.8786C16.7615 63.5639 16.4531 63.1082 16.2399 62.5117C16.0266 61.9126 15.92 61.1891 15.92 60.3413C15.92 59.4985 16.0266 58.7789 16.2399 58.1824C16.4556 57.5833 16.7653 57.1264 17.1689 56.8116C17.5751 56.4943 18.0625 56.3356 18.6311 56.3356C19.1997 56.3356 19.6858 56.4943 20.0894 56.8116C20.4956 57.1264 20.8052 57.5833 21.0185 58.1824C21.2342 58.7789 21.3421 59.4985 21.3421 60.3413C21.3421 61.1891 21.2355 61.9126 21.0223 62.5117C20.8091 63.1082 20.5006 63.5639 20.097 63.8786C19.6934 64.1908 19.2048 64.347 18.6311 64.347ZM18.6311 63.5093C19.1997 63.5093 19.6414 63.2351 19.9561 62.6868C20.2709 62.1385 20.4283 61.3567 20.4283 60.3413C20.4283 59.6661 20.3559 59.0911 20.2113 58.6164C20.0691 58.1417 19.8635 57.78 19.5944 57.5313C19.3279 57.2825 19.0068 57.1581 18.6311 57.1581C18.0675 57.1581 17.6271 57.4361 17.3098 57.992C16.9925 58.5454 16.8339 59.3285 16.8339 60.3413C16.8339 61.0165 16.9049 61.5902 17.0471 62.0624C17.1892 62.5345 17.3936 62.8937 17.6601 63.1399C17.9292 63.3862 18.2528 63.5093 18.6311 63.5093Z" fill="#B9B9C3"/>
<path d="M5.86138 28.6057C5.35876 28.6057 4.91073 28.5194 4.51727 28.3468C4.12635 28.1742 3.81539 27.9343 3.58439 27.6272C3.35594 27.3175 3.23155 26.9583 3.21124 26.5496H4.17077C4.19108 26.8009 4.27739 27.0179 4.4297 27.2007C4.582 27.3809 4.78127 27.5205 5.0275 27.6195C5.27373 27.7185 5.54661 27.768 5.84615 27.768C6.18122 27.768 6.47822 27.7097 6.73714 27.5929C6.99606 27.4761 7.19913 27.3137 7.34636 27.1055C7.49359 26.8974 7.56721 26.6562 7.56721 26.3821C7.56721 26.0952 7.49613 25.8426 7.35398 25.6243C7.21183 25.4035 7.00367 25.2309 6.72952 25.1065C6.45537 24.9821 6.1203 24.9199 5.7243 24.9199H5.09984V24.0822H5.7243C6.03399 24.0822 6.3056 24.0264 6.53914 23.9147C6.77521 23.803 6.95925 23.6456 7.09125 23.4425C7.22579 23.2395 7.29306 23.0008 7.29306 22.7267C7.29306 22.4627 7.23467 22.233 7.1179 22.0375C7.00114 21.8421 6.83614 21.6897 6.62291 21.5806C6.41222 21.4714 6.16345 21.4169 5.87661 21.4169C5.60753 21.4169 5.35369 21.4664 5.11507 21.5654C4.879 21.6618 4.68608 21.8027 4.53631 21.988C4.38654 22.1708 4.30531 22.3916 4.29262 22.6505H3.37878C3.39401 22.2419 3.51713 21.8839 3.74812 21.5768C3.97912 21.2671 4.2812 21.0259 4.65435 20.8533C5.03004 20.6807 5.44253 20.5944 5.89184 20.5944C6.37414 20.5944 6.78791 20.6921 7.13313 20.8876C7.47836 21.0805 7.74363 21.3356 7.92894 21.6529C8.11424 21.9702 8.2069 22.3129 8.2069 22.681C8.2069 23.1202 8.0914 23.4946 7.8604 23.8043C7.63194 24.114 7.32098 24.3285 6.92752 24.4478V24.5087C7.41998 24.5899 7.80455 24.7993 8.08124 25.1369C8.35793 25.472 8.49628 25.8871 8.49628 26.3821C8.49628 26.806 8.38078 27.1867 8.14978 27.5243C7.92132 27.8594 7.60909 28.1234 7.2131 28.3163C6.8171 28.5093 6.36653 28.6057 5.86138 28.6057ZM12.5971 28.6057C12.0234 28.6057 11.5348 28.4496 11.1312 28.1374C10.7276 27.8226 10.4191 27.367 10.2059 26.7704C9.99269 26.1714 9.88607 25.4479 9.88607 24.6001C9.88607 23.7573 9.99269 23.0377 10.2059 22.4411C10.4217 21.8421 10.7314 21.3851 11.135 21.0704C11.5411 20.7531 12.0285 20.5944 12.5971 20.5944C13.1657 20.5944 13.6519 20.7531 14.0555 21.0704C14.4616 21.3851 14.7713 21.8421 14.9845 22.4411C15.2003 23.0377 15.3082 23.7573 15.3082 24.6001C15.3082 25.4479 15.2016 26.1714 14.9883 26.7704C14.7751 27.367 14.4667 27.8226 14.0631 28.1374C13.6595 28.4496 13.1708 28.6057 12.5971 28.6057ZM12.5971 27.768C13.1657 27.768 13.6074 27.4939 13.9222 26.9456C14.237 26.3973 14.3943 25.6154 14.3943 24.6001C14.3943 23.9248 14.322 23.3499 14.1773 22.8752C14.0352 22.4005 13.8295 22.0388 13.5605 21.79C13.2939 21.5412 12.9728 21.4169 12.5971 21.4169C12.0336 21.4169 11.5932 21.6948 11.2759 22.2507C10.9586 22.8041 10.7999 23.5872 10.7999 24.6001C10.7999 25.2753 10.871 25.849 11.0131 26.3211C11.1553 26.7933 11.3596 27.1525 11.6262 27.3987C11.8952 27.6449 12.2189 27.768 12.5971 27.768ZM19.2986 28.6057C18.7249 28.6057 18.2363 28.4496 17.8327 28.1374C17.4291 27.8226 17.1206 27.367 16.9074 26.7704C16.6942 26.1714 16.5876 25.4479 16.5876 24.6001C16.5876 23.7573 16.6942 23.0377 16.9074 22.4411C17.1232 21.8421 17.4329 21.3851 17.8365 21.0704C18.2426 20.7531 18.73 20.5944 19.2986 20.5944C19.8672 20.5944 20.3533 20.7531 20.7569 21.0704C21.1631 21.3851 21.4728 21.8421 21.686 22.4411C21.9018 23.0377 22.0097 23.7573 22.0097 24.6001C22.0097 25.4479 21.9031 26.1714 21.6898 26.7704C21.4766 27.367 21.1682 27.8226 20.7646 28.1374C20.3609 28.4496 19.8723 28.6057 19.2986 28.6057ZM19.2986 27.768C19.8672 27.768 20.3089 27.4939 20.6237 26.9456C20.9384 26.3973 21.0958 25.6154 21.0958 24.6001C21.0958 23.9248 21.0235 23.3499 20.8788 22.8752C20.7366 22.4005 20.531 22.0388 20.262 21.79C19.9954 21.5412 19.6743 21.4169 19.2986 21.4169C18.7351 21.4169 18.2947 21.6948 17.9774 22.2507C17.66 22.8041 17.5014 23.5872 17.5014 24.6001C17.5014 25.2753 17.5725 25.849 17.7146 26.3211C17.8568 26.7933 18.0611 27.1525 18.3277 27.3987C18.5967 27.6449 18.9204 27.768 19.2986 27.768Z" fill="#B9B9C3"/>
</g>
<g clip-path="url(#clip3_1831_1395)">
<path d="M53.4824 192.127C53.4824 194.101 55.0826 195.701 57.0565 195.701C59.0305 195.701 60.6307 194.101 60.6307 192.127V134.328H53.4824V192.127Z" fill="#FF9F43"/>
<path d="M94.585 165.081C94.585 167.055 96.1852 168.655 98.1591 168.655C100.133 168.655 101.733 167.055 101.733 165.081V134.328H94.585V165.081Z" fill="#FF9F43"/>
<path d="M135.687 154.679C135.687 156.653 137.287 158.253 139.261 158.253C141.235 158.253 142.836 156.653 142.836 154.679V134.328H135.687V154.679Z" fill="#FF9F43"/>
<path d="M176.79 202.529C176.79 204.503 178.39 206.103 180.364 206.103C182.338 206.103 183.938 204.503 183.938 202.529V133.287H176.79V202.529Z" fill="#FF9F43"/>
<path d="M217.892 174.443C217.892 176.417 219.492 178.017 221.466 178.017C223.44 178.017 225.04 176.417 225.04 174.443V134.328H217.892V174.443Z" fill="#FF9F43"/>
<path d="M258.995 154.679C258.995 156.653 260.595 158.253 262.569 158.253C264.543 158.253 266.143 156.653 266.143 154.679V134.328H258.995V154.679Z" fill="#FF9F43"/>
<path d="M300.097 168.202C300.097 170.176 301.697 171.776 303.671 171.776C305.645 171.776 307.245 170.176 307.245 168.202V133.287H300.097V168.202Z" fill="#FF9F43"/>
<path d="M341.199 161.96C341.199 163.934 342.8 165.534 344.774 165.534C346.748 165.534 348.348 163.934 348.348 161.96V133.287H341.199V161.96Z" fill="#FF9F43"/>
<path d="M382.302 174.443C382.302 176.417 383.902 178.017 385.876 178.017C387.85 178.017 389.45 176.417 389.45 174.443V133.287H382.302V174.443Z" fill="#FF9F43"/>
</g>
<g clip-path="url(#clip4_1831_1395)">
<path d="M53.4824 86.9304C53.4824 84.9565 55.0826 83.3563 57.0565 83.3563C59.0305 83.3563 60.6307 84.9565 60.6307 86.9304V123.925H53.4824V86.9304Z" fill="#0BB885"/>
<path d="M94.585 51.5626C94.585 49.5887 96.1852 47.9885 98.1591 47.9885C100.133 47.9885 101.733 49.5887 101.733 51.5626V124.966H94.585V51.5626Z" fill="#0BB885"/>
<path d="M135.687 9.95343C135.687 7.97949 137.287 6.3793 139.261 6.3793C141.235 6.3793 142.836 7.97949 142.836 9.95343V121.845H135.687V9.95343Z" fill="#0BB885"/>
<path d="M176.79 22.4362C176.79 20.4623 178.39 18.8621 180.364 18.8621C182.338 18.8621 183.938 20.4623 183.938 22.4362V122.885H176.79V22.4362Z" fill="#0BB885"/>
<path d="M217.892 82.7695C217.892 80.7956 219.492 79.1954 221.466 79.1954C223.44 79.1954 225.04 80.7956 225.04 82.7695V124.966H217.892V82.7695Z" fill="#0BB885"/>
<path d="M258.995 101.494C258.995 99.5197 260.595 97.9195 262.569 97.9195C264.543 97.9195 266.143 99.5197 266.143 101.494V122.885H258.995V101.494Z" fill="#0BB885"/>
<path d="M300.097 53.6431C300.097 51.6692 301.697 50.069 303.671 50.069C305.645 50.069 307.245 51.6691 307.245 53.6431V124.965H300.097V53.6431Z" fill="#0BB885"/>
<path d="M341.199 30.758C341.199 28.7841 342.8 27.1839 344.774 27.1839C346.748 27.1839 348.348 28.7841 348.348 30.758V122.885H341.199V30.758Z" fill="#0BB885"/>
<path d="M382.302 93.1718C382.302 91.1979 383.902 89.5977 385.876 89.5977C387.85 89.5977 389.45 91.1979 389.45 93.1718V121.845H382.302V93.1718Z" fill="#0BB885"/>
</g>
</g>
<defs>
<clipPath id="clip0_1831_1395">
<rect width="397.621" height="256.937" fill="white" transform="translate(0.317383 0.137932)"/>
</clipPath>
<clipPath id="clip1_1831_1395">
<rect width="352.945" height="16.9771" fill="white" transform="translate(44.9939 240.372)"/>
</clipPath>
<clipPath id="clip2_1831_1395">
<rect width="25.0189" height="227.81" fill="white" transform="translate(0.76416 0.137924)"/>
</clipPath>
<clipPath id="clip3_1831_1395">
<rect width="335.968" height="72.8161" fill="white" transform="translate(53.4824 133.287)"/>
</clipPath>
<clipPath id="clip4_1831_1395">
<rect width="335.968" height="118.586" fill="white" transform="translate(53.4824 6.3793)"/>
</clipPath>
</defs>
</svg>
